<svg width="165" height="27" viewBox="0 0 165 27" fill="none" xmlns="http://www.w3.org/2000/svg">
<path d="M12.72 22.48C11.02 22.48 9.44 22.21 7.98 21.67C6.54 21.13 5.29 20.37 4.23 19.39C3.17 18.39 2.34 17.22 1.74 15.88C1.16 14.54 0.87 13.08 0.87 11.5C0.87 9.9 1.16 8.44 1.74 7.12C2.34 5.78 3.17 4.62 4.23 3.64C5.29 2.64 6.54 1.87 7.98 1.33C9.44 0.789999 11.02 0.519999 12.72 0.519999C14.44 0.519999 16.02 0.789999 17.46 1.33C18.9 1.87 20.15 2.64 21.21 3.64C22.27 4.62 23.09 5.78 23.67 7.12C24.27 8.44 24.57 9.9 24.57 11.5C24.57 13.08 24.27 14.54 23.67 15.88C23.09 17.22 22.27 18.39 21.21 19.39C20.15 20.37 18.9 21.13 17.46 21.67C16.02 22.21 14.44 22.48 12.72 22.48ZM12.72 16.75C13.38 16.75 13.99 16.63 14.55 16.39C15.13 16.15 15.63 15.81 16.05 15.37C16.49 14.91 16.83 14.36 17.07 13.72C17.31 13.06 17.43 12.32 17.43 11.5C17.43 10.68 17.31 9.95 17.07 9.31C16.83 8.65 16.49 8.1 16.05 7.66C15.63 7.2 15.13 6.85 14.55 6.61C13.99 6.37 13.38 6.25 12.72 6.25C12.06 6.25 11.44 6.37 10.86 6.61C10.3 6.85 9.8 7.2 9.36 7.66C8.94 8.1 8.61 8.65 8.37 9.31C8.13 9.95 8.01 10.68 8.01 11.5C8.01 12.32 8.13 13.06 8.37 13.72C8.61 14.36 8.94 14.91 9.36 15.37C9.8 15.81 10.3 16.15 10.86 16.39C11.44 16.63 12.06 16.75 12.72 16.75Z" fill="#6482AD"/>
<path d="M34.3577 22.144C33.3017 22.144 32.3337 21.904 31.4537 21.424C30.5897 20.928 29.8937 20.2 29.3657 19.24C28.8537 18.28 28.5977 17.08 28.5977 15.64C28.5977 14.2 28.8457 13 29.3417 12.04C29.8537 11.08 30.5417 10.36 31.4057 9.88C32.2857 9.4 33.2697 9.16 34.3577 9.16C35.6057 9.16 36.7097 9.432 37.6697 9.976C38.6297 10.52 39.3897 11.28 39.9497 12.256C40.5097 13.216 40.7897 14.344 40.7897 15.64C40.7897 16.936 40.5097 18.072 39.9497 19.048C39.3897 20.024 38.6297 20.784 37.6697 21.328C36.7097 21.872 35.6057 22.144 34.3577 22.144ZM27.6137 26.656V9.28H29.8217V12.712L29.6777 15.664L29.9177 18.616V26.656H27.6137ZM34.1657 20.128C34.9817 20.128 35.7097 19.944 36.3497 19.576C37.0057 19.208 37.5177 18.688 37.8857 18.016C38.2697 17.328 38.4617 16.536 38.4617 15.64C38.4617 14.728 38.2697 13.944 37.8857 13.288C37.5177 12.616 37.0057 12.096 36.3497 11.728C35.7097 11.36 34.9817 11.176 34.1657 11.176C33.3657 11.176 32.6377 11.36 31.9817 11.728C31.3417 12.096 30.8297 12.616 30.4457 13.288C30.0777 13.944 29.8937 14.728 29.8937 15.64C29.8937 16.536 30.0777 17.328 30.4457 18.016C30.8297 18.688 31.3417 19.208 31.9817 19.576C32.6377 19.944 33.3657 20.128 34.1657 20.128ZM50.7171 22.144C49.6611 22.144 48.6931 21.904 47.8131 21.424C46.9491 20.928 46.2531 20.2 45.7251 19.24C45.2131 18.28 44.9571 17.08 44.9571 15.64C44.9571 14.2 45.2051 13 45.7011 12.04C46.2131 11.08 46.9011 10.36 47.7651 9.88C48.6451 9.4 49.6291 9.16 50.7171 9.16C51.9651 9.16 53.0691 9.432 54.0291 9.976C54.9891 10.52 55.7491 11.28 56.3091 12.256C56.8691 13.216 57.1491 14.344 57.1491 15.64C57.1491 16.936 56.8691 18.072 56.3091 19.048C55.7491 20.024 54.9891 20.784 54.0291 21.328C53.0691 21.872 51.9651 22.144 50.7171 22.144ZM43.9731 26.656V9.28H46.1811V12.712L46.0371 15.664L46.2771 18.616V26.656H43.9731ZM50.5251 20.128C51.3411 20.128 52.0691 19.944 52.7091 19.576C53.3651 19.208 53.8771 18.688 54.2451 18.016C54.6291 17.328 54.8211 16.536 54.8211 15.64C54.8211 14.728 54.6291 13.944 54.2451 13.288C53.8771 12.616 53.3651 12.096 52.7091 11.728C52.0691 11.36 51.3411 11.176 50.5251 11.176C49.7251 11.176 48.9971 11.36 48.3411 11.728C47.7011 12.096 47.1891 12.616 46.8051 13.288C46.4371 13.944 46.2531 14.728 46.2531 15.64C46.2531 16.536 46.4371 17.328 46.8051 18.016C47.1891 18.688 47.7011 19.208 48.3411 19.576C48.9971 19.944 49.7251 20.128 50.5251 20.128ZM65.7804 22.144C64.5004 22.144 63.3644 21.864 62.3724 21.304C61.3804 20.744 60.5964 19.976 60.0204 19C59.4444 18.008 59.1564 16.888 59.1564 15.64C59.1564 14.376 59.4444 13.256 60.0204 12.28C60.5964 11.304 61.3804 10.544 62.3724 10C63.3644 9.44 64.5004 9.16 65.7804 9.16C67.0444 9.16 68.1724 9.44 69.1644 10C70.1724 10.544 70.9564 11.304 71.5164 12.28C72.0924 13.24 72.3804 14.36 72.3804 15.64C72.3804 16.904 72.0924 18.024 71.5164 19C70.9564 19.976 70.1724 20.744 69.1644 21.304C68.1724 21.864 67.0444 22.144 65.7804 22.144ZM65.7804 20.128C66.5964 20.128 67.3244 19.944 67.9644 19.576C68.6204 19.208 69.1324 18.688 69.5004 18.016C69.8684 17.328 70.0524 16.536 70.0524 15.64C70.0524 14.728 69.8684 13.944 69.5004 13.288C69.1324 12.616 68.6204 12.096 67.9644 11.728C67.3244 11.36 66.5964 11.176 65.7804 11.176C64.9644 11.176 64.2364 11.36 63.5964 11.728C62.9564 12.096 62.4444 12.616 62.0604 13.288C61.6764 13.944 61.4844 14.728 61.4844 15.64C61.4844 16.536 61.6764 17.328 62.0604 18.016C62.4444 18.688 62.9564 19.208 63.5964 19.576C64.2364 19.944 64.9644 20.128 65.7804 20.128ZM75.5668 22V9.28H77.7748V12.736L77.5588 11.872C77.9108 10.992 78.5028 10.32 79.3348 9.856C80.1668 9.392 81.1908 9.16 82.4068 9.16V11.392C82.3108 11.376 82.2148 11.368 82.1188 11.368C82.0388 11.368 81.9588 11.368 81.8788 11.368C80.6468 11.368 79.6708 11.736 78.9508 12.472C78.2308 13.208 77.8708 14.272 77.8708 15.664V22H75.5668ZM90.1301 22.144C88.8501 22.144 87.8581 21.8 87.1541 21.112C86.4501 20.424 86.0981 19.44 86.0981 18.16V6.496H88.4021V18.064C88.4021 18.752 88.5701 19.28 88.9061 19.648C89.2581 20.016 89.7541 20.2 90.3941 20.2C91.1141 20.2 91.7141 20 92.1941 19.6L92.9141 21.256C92.5621 21.56 92.1381 21.784 91.6421 21.928C91.1621 22.072 90.6581 22.144 90.1301 22.144ZM83.9381 11.176V9.28H92.0501V11.176H83.9381ZM101.052 22.144C99.9636 22.144 99.0036 21.944 98.1716 21.544C97.3556 21.144 96.7156 20.536 96.2516 19.72C95.8036 18.888 95.5796 17.848 95.5796 16.6V9.28H97.8836V16.336C97.8836 17.584 98.1796 18.52 98.7716 19.144C99.3796 19.768 100.228 20.08 101.316 20.08C102.116 20.08 102.812 19.92 103.404 19.6C103.996 19.264 104.452 18.784 104.772 18.16C105.092 17.52 105.252 16.752 105.252 15.856V9.28H107.556V22H105.372V18.568L105.732 19.48C105.316 20.328 104.692 20.984 103.86 21.448C103.028 21.912 102.092 22.144 101.052 22.144ZM118.734 9.16C119.774 9.16 120.686 9.36 121.47 9.76C122.27 10.16 122.894 10.768 123.342 11.584C123.79 12.4 124.014 13.432 124.014 14.68V22H121.71V14.944C121.71 13.712 121.406 12.784 120.798 12.16C120.206 11.536 119.366 11.224 118.278 11.224C117.462 11.224 116.75 11.384 116.142 11.704C115.534 12.024 115.062 12.496 114.726 13.12C114.406 13.744 114.246 14.52 114.246 15.448V22H111.942V9.28H114.15V12.712L113.79 11.8C114.206 10.968 114.846 10.32 115.71 9.856C116.574 9.392 117.582 9.16 118.734 9.16ZM133.942 22.144C132.582 22.144 131.382 21.864 130.342 21.304C129.318 20.744 128.518 19.976 127.942 19C127.382 18.024 127.102 16.904 127.102 15.64C127.102 14.376 127.374 13.256 127.918 12.28C128.478 11.304 129.238 10.544 130.198 10C131.174 9.44 132.27 9.16 133.486 9.16C134.718 9.16 135.806 9.432 136.75 9.976C137.694 10.52 138.43 11.288 138.958 12.28C139.502 13.256 139.774 14.4 139.774 15.712C139.774 15.808 139.766 15.92 139.75 16.048C139.75 16.176 139.742 16.296 139.726 16.408H128.902V14.752H138.526L137.59 15.328C137.606 14.512 137.438 13.784 137.086 13.144C136.734 12.504 136.246 12.008 135.622 11.656C135.014 11.288 134.302 11.104 133.486 11.104C132.686 11.104 131.974 11.288 131.35 11.656C130.726 12.008 130.238 12.512 129.886 13.168C129.534 13.808 129.358 14.544 129.358 15.376V15.76C129.358 16.608 129.55 17.368 129.934 18.04C130.334 18.696 130.886 19.208 131.59 19.576C132.294 19.944 133.102 20.128 134.014 20.128C134.766 20.128 135.446 20 136.054 19.744C136.678 19.488 137.222 19.104 137.686 18.592L138.958 20.08C138.382 20.752 137.662 21.264 136.798 21.616C135.95 21.968 134.998 22.144 133.942 22.144ZM148.637 22.144C147.277 22.144 146.077 21.864 145.037 21.304C144.013 20.744 143.213 19.976 142.637 19C142.077 18.024 141.797 16.904 141.797 15.64C141.797 14.376 142.069 13.256 142.613 12.28C143.173 11.304 143.933 10.544 144.893 10C145.869 9.44 146.965 9.16 148.181 9.16C149.413 9.16 150.501 9.432 151.445 9.976C152.389 10.52 153.125 11.288 153.653 12.28C154.197 13.256 154.469 14.4 154.469 15.712C154.469 15.808 154.461 15.92 154.445 16.048C154.445 16.176 154.437 16.296 154.421 16.408H143.597V14.752H153.221L152.285 15.328C152.301 14.512 152.133 13.784 151.781 13.144C151.429 12.504 150.941 12.008 150.317 11.656C149.709 11.288 148.997 11.104 148.181 11.104C147.381 11.104 146.669 11.288 146.045 11.656C145.421 12.008 144.933 12.512 144.581 13.168C144.229 13.808 144.053 14.544 144.053 15.376V15.76C144.053 16.608 144.245 17.368 144.629 18.04C145.029 18.696 145.581 19.208 146.285 19.576C146.989 19.944 147.797 20.128 148.709 20.128C149.461 20.128 150.141 20 150.749 19.744C151.373 19.488 151.917 19.104 152.381 18.592L153.653 20.08C153.077 20.752 152.357 21.264 151.493 21.616C150.645 21.968 149.693 22.144 148.637 22.144ZM157.668 22V9.28H159.876V12.736L159.66 11.872C160.012 10.992 160.604 10.32 161.436 9.856C162.268 9.392 163.292 9.16 164.508 9.16V11.392C164.412 11.376 164.316 11.368 164.22 11.368C164.14 11.368 164.06 11.368 163.98 11.368C162.748 11.368 161.772 11.736 161.052 12.472C160.332 13.208 159.972 14.272 159.972 15.664V22H157.668Z" fill="black"/>
</svg>
